{
   "accessors" : [
      {
         "bufferView" : 0,
         "componentType" : 5123,
         "count" : 3264,
         "max" : [ 3263 ],
         "min" : [ 0 ],
         "name" : "buffer-0-accessor-indices-buffer-0-mesh-0",
         "type" : "SCALAR"
      },
      {
         "bufferView" : 2,
         "componentType" : 5126,
         "count" : 3264,
         "max" : [ 17.82920074462891, 32.57419967651367, 31.24830055236816 ],
         "min" : [ -16.30470085144043, 0, -17.51749992370605 ],
         "name" : "buffer-0-accessor-position-buffer-0-mesh-0",
         "type" : "VEC3"
      },
      {
         "bufferView" : 2,
         "byteOffset" : 39168,
         "componentType" : 5126,
         "count" : 3264,
         "max" : [ 1, 1, 1 ],
         "min" : [ -1, -1, -1 ],
         "name" : "buffer-0-accessor-normal-buffer-0-mesh-0",
         "type" : "VEC3"
      },
      {
         "bufferView" : 1,
         "componentType" : 5126,
         "count" : 3264,
         "max" : [ 1, 0 ],
         "min" : [ 0, -1 ],
         "name" : "buffer-0-accessor-texcoord-buffer-0-mesh-0",
         "type" : "VEC2"
      },
      {
         "bufferView" : 3,
         "componentType" : 5126,
         "count" : 0,
         "max" : [ 0, 0, 0, 0 ],
         "min" : [ 0, 0, 0, 0 ],
         "name" : "buffer-0-accessor-color-buffer-0-mesh-0",
         "type" : "VEC4"
      },
      {
         "bufferView" : 0,
         "byteOffset" : 6528,
         "componentType" : 5123,
         "count" : 50028,
         "max" : [ 50027 ],
         "min" : [ 0 ],
         "name" : "buffer-0-accessor-indices-buffer-0-mesh-0",
         "type" : "SCALAR"
      },
      {
         "bufferView" : 2,
         "byteOffset" : 78336,
         "componentType" : 5126,
         "count" : 50028,
         "max" : [ 19.00589942932129, 18.65369987487793, 35.46009826660156 ],
         "min" : [ -17.19960021972656, -1.530500054359436, -24.53790092468262 ],
         "name" : "buffer-0-accessor-position-buffer-0-mesh-0",
         "type" : "VEC3"
      },
      {
         "bufferView" : 2,
         "byteOffset" : 678672,
         "componentType" : 5126,
         "count" : 50028,
         "max" : [ 1, 1, 1 ],
         "min" : [ -1, -1, -1 ],
         "name" : "buffer-0-accessor-normal-buffer-0-mesh-0",
         "type" : "VEC3"
      },
      {
         "bufferView" : 1,
         "byteOffset" : 26112,
         "componentType" : 5126,
         "count" : 50028,
         "max" : [ 134.1817932128906, 2.857100009918213 ],
         "min" : [ -133.8650054931641, -65.9552001953125 ],
         "name" : "buffer-0-accessor-texcoord-buffer-0-mesh-0",
         "type" : "VEC2"
      },
      {
         "bufferView" : 3,
         "componentType" : 5126,
         "count" : 0,
         "max" : [ 0, 0, 0, 0 ],
         "min" : [ 0, 0, 0, 0 ],
         "name" : "buffer-0-accessor-color-buffer-0-mesh-0",
         "type" : "VEC4"
      },
      {
         "bufferView" : 0,
         "byteOffset" : 106584,
         "componentType" : 5123,
         "count" : 984,
         "max" : [ 983 ],
         "min" : [ 0 ],
         "name" : "buffer-0-accessor-indices-buffer-0-mesh-0",
         "type" : "SCALAR"
      },
      {
         "bufferView" : 2,
         "byteOffset" : 1279008,
         "componentType" : 5126,
         "count" : 984,
         "max" : [ 15.890700340271, 31.64229965209961, 15.92010021209717 ],
         "min" : [ -13.92829990386963, 0, -26.00009918212891 ],
         "name" : "buffer-0-accessor-position-buffer-0-mesh-0",
         "type" : "VEC3"
      },
      {
         "bufferView" : 2,
         "byteOffset" : 1290816,
         "componentType" : 5126,
         "count" : 984,
         "max" : [ 0.9843999743461609, 0.9879000186920166, 0.986299991607666 ],
         "min" : [ -0.9843999743461609, -0.9879000186920166, -0.9861999750137329 ],
         "name" : "buffer-0-accessor-normal-buffer-0-mesh-0",
         "type" : "VEC3"
      },
      {
         "bufferView" : 1,
         "byteOffset" : 426336,
         "componentType" : 5126,
         "count" : 984,
         "max" : [ 1, 0 ],
         "min" : [ 0, -1 ],
         "name" : "buffer-0-accessor-texcoord-buffer-0-mesh-0",
         "type" : "VEC2"
      },
      {
         "bufferView" : 3,
         "componentType" : 5126,
         "count" : 0,
         "max" : [ 0, 0, 0, 0 ],
         "min" : [ 0, 0, 0, 0 ],
         "name" : "buffer-0-accessor-color-buffer-0-mesh-0",
         "type" : "VEC4"
      },
      {
         "bufferView" : 0,
         "byteOffset" : 108552,
         "componentType" : 5123,
         "count" : 102,
         "max" : [ 101 ],
         "min" : [ 0 ],
         "name" : "buffer-0-accessor-indices-buffer-0-mesh-0",
         "type" : "SCALAR"
      },
      {
         "bufferView" : 2,
         "byteOffset" : 1302624,
         "componentType" : 5126,
         "count" : 102,
         "max" : [ 10.41609954833984, 9.070199966430664, 31.2504997253418 ],
         "min" : [ -8.851099967956543, 0, 0 ],
         "name" : "buffer-0-accessor-position-buffer-0-mesh-0",
         "type" : "VEC3"
      },
      {
         "bufferView" : 2,
         "byteOffset" : 1303848,
         "componentType" : 5126,
         "count" : 102,
         "max" : [ 0, 0, 1 ],
         "min" : [ 0, 0, 0 ],
         "name" : "buffer-0-accessor-normal-buffer-0-mesh-0",
         "type" : "VEC3"
      },
      {
         "bufferView" : 1,
         "byteOffset" : 434208,
         "componentType" : 5126,
         "count" : 102,
         "max" : [ 0.4472000002861023, 0 ],
         "min" : [ 0, -1 ],
         "name" : "buffer-0-accessor-texcoord-buffer-0-mesh-0",
         "type" : "VEC2"
      },
      {
         "bufferView" : 3,
         "componentType" : 5126,
         "count" : 0,
         "max" : [ 0, 0, 0, 0 ],
         "min" : [ 0, 0, 0, 0 ],
         "name" : "buffer-0-accessor-color-buffer-0-mesh-0",
         "type" : "VEC4"
      },
      {
         "bufferView" : 0,
         "byteOffset" : 108756,
         "componentType" : 5123,
         "count" : 852,
         "max" : [ 851 ],
         "min" : [ 0 ],
         "name" : "buffer-0-accessor-indices-buffer-0-mesh-0",
         "type" : "SCALAR"
      },
      {
         "bufferView" : 2,
         "byteOffset" : 1305072,
         "componentType" : 5126,
         "count" : 852,
         "max" : [ 6.146100044250488, 34.2484016418457, 11.76799964904785 ],
         "min" : [ 0, 0, 0 ],
         "name" : "buffer-0-accessor-position-buffer-0-mesh-0",
         "type" : "VEC3"
      },
      {
         "bufferView" : 2,
         "byteOffset" : 1315296,
         "componentType" : 5126,
         "count" : 852,
         "max" : [ 0.9965000152587891, 0.9901999831199646, 0.9965999722480774 ],
         "min" : [ -0.9639000296592712, -0.9901999831199646, -0.9965999722480774 ],
         "name" : "buffer-0-accessor-normal-buffer-0-mesh-0",
         "type" : "VEC3"
      },
      {
         "bufferView" : 1,
         "byteOffset" : 435024,
         "componentType" : 5126,
         "count" : 852,
         "max" : [ 1.041700005531311, 0 ],
         "min" : [ 0, -1 ],
         "name" : "buffer-0-accessor-texcoord-buffer-0-mesh-0",
         "type" : "VEC2"
      },
      {
         "bufferView" : 3,
         "componentType" : 5126,
         "count" : 0,
         "max" : [ 0, 0, 0, 0 ],
         "min" : [ 0, 0, 0, 0 ],
         "name" : "buffer-0-accessor-color-buffer-0-mesh-0",
         "type" : "VEC4"
      },
      {
         "bufferView" : 0,
         "byteOffset" : 110460,
         "componentType" : 5123,
         "count" : 1200,
         "max" : [ 1199 ],
         "min" : [ 0 ],
         "name" : "buffer-0-accessor-indices-buffer-0-mesh-0",
         "type" : "SCALAR"
      },
      {
         "bufferView" : 2,
         "byteOffset" : 1325520,
         "componentType" : 5126,
         "count" : 1200,
         "max" : [ 15.53390026092529, 11.54559993743896, 36.95209884643555 ],
         "min" : [ -13.92829990386963, 0, 0 ],
         "name" : "buffer-0-accessor-position-buffer-0-mesh-0",
         "type" : "VEC3"
      },
      {
         "bufferView" : 2,
         "byteOffset" : 1339920,
         "componentType" : 5126,
         "count" : 1200,
         "max" : [ 0.9753999710083008, 0.9879000186920166, 0.9843999743461609 ],
         "min" : [ -0.9753999710083008, -0.9879000186920166, -0.9843999743461609 ],
         "name" : "buffer-0-accessor-normal-buffer-0-mesh-0",
         "type" : "VEC3"
      },
      {
         "bufferView" : 1,
         "byteOffset" : 441840,
         "componentType" : 5126,
         "count" : 1200,
         "max" : [ 1, 0 ],
         "min" : [ 0, -1 ],
         "name" : "buffer-0-accessor-texcoord-buffer-0-mesh-0",
         "type" : "VEC2"
      },
      {
         "bufferView" : 3,
         "componentType" : 5126,
         "count" : 0,
         "max" : [ 0, 0, 0, 0 ],
         "min" : [ 0, 0, 0, 0 ],
         "name" : "buffer-0-accessor-color-buffer-0-mesh-0",
         "type" : "VEC4"
      },
      {
         "bufferView" : 0,
         "byteOffset" : 112860,
         "componentType" : 5123,
         "count" : 8436,
         "max" : [ 8435 ],
         "min" : [ 0 ],
         "name" : "buffer-0-accessor-indices-buffer-0-mesh-0",
         "type" : "SCALAR"
      },
      {
         "bufferView" : 2,
         "byteOffset" : 1354320,
         "componentType" : 5126,
         "count" : 8436,
         "max" : [ 18.18490028381348, 12.59539985656738, 37.03839874267578 ],
         "min" : [ -16.50410079956055, 0, -25.26790046691895 ],
         "name" : "buffer-0-accessor-position-buffer-0-mesh-0",
         "type" : "VEC3"
      },
      {
         "bufferView" : 2,
         "byteOffset" : 1455552,
         "componentType" : 5126,
         "count" : 8436,
         "max" : [ 1, 1, 1 ],
         "min" : [ -1, -1, -1 ],
         "name" : "buffer-0-accessor-normal-buffer-0-mesh-0",
         "type" : "VEC3"
      },
      {
         "bufferView" : 1,
         "byteOffset" : 451440,
         "componentType" : 5126,
         "count" : 8436,
         "max" : [ 17.04360008239746, 2.24970006942749 ],
         "min" : [ -17.39739990234375, -3.0625 ],
         "name" : "buffer-0-accessor-texcoord-buffer-0-mesh-0",
         "type" : "VEC2"
      },
      {
         "bufferView" : 3,
         "componentType" : 5126,
         "count" : 0,
         "max" : [ 0, 0, 0, 0 ],
         "min" : [ 0, 0, 0, 0 ],
         "name" : "buffer-0-accessor-color-buffer-0-mesh-0",
         "type" : "VEC4"
      }
   ],
   "asset" : {
      "generator" : "Obj2GltfConverter",
      "version" : "2.0"
   },
   "bufferViews" : [
      {
         "buffer" : 0,
         "byteLength" : 129732,
         "byteStride" : 0,
         "name" : "buffer-0-bufferview-ushort",
         "target" : 34963
      },
      {
         "buffer" : 0,
         "byteLength" : 518928,
         "byteOffset" : 129736,
         "byteStride" : 8,
         "name" : "buffer-0-bufferview-vec2",
         "target" : 34962
      },
      {
         "buffer" : 0,
         "byteLength" : 1556784,
         "byteOffset" : 648672,
         "byteStride" : 12,
         "name" : "buffer-0-bufferview-vec3",
         "target" : 34962
      },
      {
         "buffer" : 0,
         "byteLength" : 1,
         "name" : "buffer-0-bufferview-vec4"
      }
   ],
   "buffers" : [
      {
         "byteLength" : 2205456,
         "name" : "buffer-0",
         "uri" : "PoliceCar_1396.bin"
      }
   ],
   "materials" : [
      {
         "doubleSided" : true,
         "name" : "01___Default",
         "pbrMetallicRoughness" : {
            "metallicFactor" : 0,
            "roughnessFactor" : 0.9699476628648295
         }
      },
      {
         "doubleSided" : true,
         "name" : "13___Default",
         "pbrMetallicRoughness" : {
            "baseColorFactor" : [ 0.0118, 0.0118, 0.0118, 1 ],
            "metallicFactor" : 0,
            "roughnessFactor" : 0.9699476628648295
         }
      },
      {
         "doubleSided" : true,
         "name" : "07___Default",
         "pbrMetallicRoughness" : {
            "baseColorFactor" : [ 0.0549, 0.1882, 0.2902, 1 ],
            "metallicFactor" : 0,
            "roughnessFactor" : 0.9699476628648295
         }
      },
      {
         "doubleSided" : true,
         "name" : "19___Default",
         "pbrMetallicRoughness" : {
            "baseColorFactor" : [ 0.5881999999999999, 0.5881999999999999, 0.5881999999999999, 1 ],
            "metallicFactor" : 0,
            "roughnessFactor" : 0.9699476628648295
         }
      },
      {
         "doubleSided" : true,
         "name" : "02___Default",
         "pbrMetallicRoughness" : {
            "baseColorFactor" : [ 0.8863, 0, 0, 1 ],
            "metallicFactor" : 0,
            "roughnessFactor" : 0.9699476628648295
         }
      },
      {
         "doubleSided" : true,
         "name" : "03___Default",
         "pbrMetallicRoughness" : {
            "metallicFactor" : 0,
            "roughnessFactor" : 0.9699476628648295
         }
      },
      {
         "doubleSided" : true,
         "name" : "09___Default",
         "pbrMetallicRoughness" : {
            "baseColorFactor" : [ 0.0275, 0.0275, 0.0275, 1 ],
            "metallicFactor" : 0,
            "roughnessFactor" : 0.9699476628648295
         }
      }
   ],
   "meshes" : [
      {
         "name" : "buffer-0-mesh-0",
         "primitives" : [
            {
               "attributes" : {
                  "NORMAL" : 2,
                  "POSITION" : 1,
                  "TEXCOORD_0" : 3
               },
               "indices" : 0,
               "material" : 0
            },
            {
               "attributes" : {
                  "NORMAL" : 7,
                  "POSITION" : 6,
                  "TEXCOORD_0" : 8
               },
               "indices" : 5,
               "material" : 1
            },
            {
               "attributes" : {
                  "NORMAL" : 12,
                  "POSITION" : 11,
                  "TEXCOORD_0" : 13
               },
               "indices" : 10,
               "material" : 2
            },
            {
               "attributes" : {
                  "NORMAL" : 17,
                  "POSITION" : 16,
                  "TEXCOORD_0" : 18
               },
               "indices" : 15,
               "material" : 3
            },
            {
               "attributes" : {
                  "NORMAL" : 22,
                  "POSITION" : 21,
                  "TEXCOORD_0" : 23
               },
               "indices" : 20,
               "material" : 4
            },
            {
               "attributes" : {
                  "NORMAL" : 27,
                  "POSITION" : 26,
                  "TEXCOORD_0" : 28
               },
               "indices" : 25,
               "material" : 5
            },
            {
               "attributes" : {
                  "NORMAL" : 32,
                  "POSITION" : 31,
                  "TEXCOORD_0" : 33
               },
               "indices" : 30,
               "material" : 6
            }
         ]
      }
   ],
   "nodes" : [
      {
         "mesh" : 0,
         "name" : "node-0"
      }
   ],
   "scenes" : [
      {
         "name" : "scene-0",
         "nodes" : [ 0 ]
      }
   ]
}
